<svg xmlns="http://www.w3.org/2000/svg" xml:space="preserve" width="1500" height="1500" viewBox="0 0 1500 1500" data-version="1" data-id="lg_duDfIZm9a767c7gtaW" x="0" y="0"><rect width="1500" height="1500" id="background" stroke="transparent" fill="#ffd700"></rect><g id="outer-wrapper" data-padding="20" transform="matrix(1.7857142857142858,0,0,1.7857142857142858,-589.2857142857144,-589.2857142857144)"><g id="inner-wrapper" transform="matrix(0.9642857142857143,0,0,0.9642857142857143,10,8.696428571428555)"><rect width="385.077" height="117.52" x="174.3684074074074" y="310.1542592592594" fill="none" rx="0" ry="0" transform="translate(400.49 507.22)"></rect><path fill="#1b4571" d="M618.5574074074075 908.8042592592594H601.4974074074074V837.3542592592594L607.9474074074075 849.5742592592594H579.0874074074075V834.6542592592593H640.9174074074074V849.5742592592594H612.0574074074075L618.5574074074075 837.3542592592594ZM686.2474074074075 910.2142592592593Q676.2074074074075 910.2142592592593 668.8774074074074 907.1142592592594Q661.5474074074075 904.0242592592592 656.8174074074075 898.6442592592593Q652.0874074074075 893.2542592592592 649.7674074074075 886.3442592592594Q647.4574074074075 879.4242592592593 647.4574074074075 871.7842592592593Q647.4574074074075 860.9642592592593 651.7474074074075 852.2042592592593T664.5374074074075 838.2942592592593T685.7774074074075 833.1442592592593Q695.4474074074076 833.1442592592593 702.6774074074075 836.1342592592594T714.7174074074076 844.4342592592593Q719.5274074074075 849.7342592592594 721.9174074074075 856.7042592592593T724.3074074074075 871.6742592592593Q724.3074074074075 882.7542592592595 719.9174074074075 891.4342592592593Q715.5274074074075 900.1242592592594 707.0474074074075 905.1642592592593Q698.5674074074075 910.2142592592593 686.2474074074075 910.2142592592593M685.9874074074075 896.1142592592594Q691.1374074074074 896.1142592592594 694.9874074074075 894.1642592592593Q698.8274074074075 892.2142592592593 701.3774074074074 888.7842592592592T705.1974074074075 880.9642592592593Q706.4774074074074 876.5642592592592 706.4774074074074 871.6742592592592Q706.4774074074074 866.5342592592592 705.0974074074074 862.0842592592592T701.0974074074074 854.3142592592592Q698.4674074074074 850.9842592592593 694.6674074074074 849.1142592592593Q690.8774074074074 847.2342592592593 685.9874074074074 847.2342592592593Q680.9474074074074 847.2342592592593 677.0674074074075 849.1642592592593Q673.1974074074074 851.0842592592593 670.5974074074074 854.4942592592593Q667.9974074074073 857.8942592592592 666.6474074074074 862.3142592592592Q665.2874074074074 866.7342592592593 665.2874074074074 871.6742592592593T666.5874074074075 881.0142592592592Q667.8874074074074 885.4042592592593 670.4674074074073 888.8142592592592Q673.0374074074074 892.2142592592593 676.9174074074074 894.1642592592593Q680.7874074074074 896.1142592592594 685.9874074074073 896.1142592592594M749.3874074074074 908.8042592592594H733.4174074074074Q734.1974074074074 902.9842592592593 734.9274074074074 897.1542592592593Q735.6574074074074 891.3342592592594 736.4874074074073 884.5242592592595L739.5574074074073 859.6642592592593Q740.4374074074074 852.9542592592594 741.1674074074074 846.9742592592594T742.6774074074074 834.6542592592593H759.9974074074073Q762.4874074074073 840.9942592592594 764.7474074074073 846.7942592592594Q767.0174074074073 852.5942592592594 769.2474074074073 858.3142592592594L778.0874074074072 880.9842592592593H779.2374074074073L787.8174074074072 858.3642592592594Q789.9974074074073 852.5942592592594 792.1574074074072 846.9242592592593T796.7074074074072 834.6542592592593H813.8174074074072Q814.5974074074072 840.8942592592593 815.3474074074072 846.8742592592594T816.9874074074072 859.7142592592593L820.1574074074072 884.6742592592593Q820.9874074074072 891.4342592592593 821.7474074074072 897.1542592592593Q822.4974074074072 902.8742592592594 823.2274074074072 908.8042592592594H806.9474074074071Q806.0174074074072 901.0042592592595 805.1274074074072 893.9842592592593Q804.2474074074072 886.9642592592593 803.5174074074072 880.8342592592594L801.3374074074072 863.2542592592594H800.1874074074071L793.7374074074072 882.1342592592594Q791.3974074074072 889.0942592592594 789.0374074074073 895.9342592592593Q786.6674074074072 902.7742592592595 784.6374074074072 908.8042592592594H773.3074074074075Q771.8474074074074 904.9042592592593 770.1574074074074 900.4342592592593T766.6974074074075 891.3042592592594Q764.9374074074075 886.6542592592593 763.2174074074074 882.1842592592593L756.0374074074075 863.2542592592594H754.8974074074074L752.7674074074075 880.7242592592593Q752.0374074074075 886.9142592592593 751.1774074074075 893.9642592592593Q750.3174074074075 901.0042592592592 749.3874074074074 908.8042592592594M885.4174074074074 908.8042592592594H835.7074074074075V834.6542592592593H884.9474074074074V848.6442592592593H844.2874074074075L852.4474074074075 837.3542592592594V906.1042592592594L845.3774074074074 894.8142592592594H885.4174074074074ZM862.1174074074074 877.9142592592593H848.5474074074075V864.9142592592593H883.2874074074075V877.9142592592593ZM914.5374074074075 908.8042592592594H897.7374074074075V834.6542592592593H926.1874074074076Q935.2374074074075 834.6542592592593 941.4974074074075 836.6542592592593Q947.7674074074075 838.6542592592593 951.0174074074075 843.3342592592594T954.2674074074075 856.0742592592594Q954.2674074074075 862.4742592592594 951.7474074074075 867.5742592592594Q949.2174074074076 872.6642592592593 943.6574074074074 875.6342592592594Q938.0974074074074 878.5942592592594 929.0974074074074 878.5942592592594L935.6974074074076 872.3542592592594L945.7874074074075 887.2242592592593Q948.1274074074076 890.6542592592593 950.7774074074075 894.5842592592594Q953.4374074074076 898.5142592592592 955.9574074074076 902.2242592592593Q958.4774074074076 905.9442592592593 960.3974074074076 908.8042592592594H941.0074074074075Q938.1974074074076 904.4342592592593 935.5974074074074 900.4342592592593T930.5574074074075 892.6342592592594L918.5374074074075 873.7042592592594L928.6774074074076 881.4542592592593H911.4674074074076V869.2342592592593H923.8474074074074Q928.0074074074075 869.2342592592593 930.8374074074075 868.2242592592593Q933.6774074074076 867.2042592592593 935.1274074074074 864.7642592592593Q936.5874074074075 862.3142592592594 936.5874074074075 858.0542592592594Q936.5874074074075 854.8842592592594 935.6474074074074 852.9342592592593Q934.7174074074076 850.9842592592594 933.1274074074074 849.8942592592593Q931.5374074074075 848.7942592592593 929.5874074074075 848.4342592592593T925.6674074074076 848.0742592592594H902.3674074074077L914.5374074074075 837.3542592592594Z "></path><rect width="560" height="58.76" x="86.90740740740739" y="339.5342592592594" fill="none" rx="0" ry="0" transform="translate(400.5 613.8)"></rect><path fill="#1b4571" d="M505.2974074074074 999.6142592592594Q502.9874074074074 999.6142592592594 500.6374074074074 999.1942592592595Q498.2774074074074 998.7642592592595 496.2874074074074 998.1242592592594Q494.30740740740737 997.4842592592595 493.0774074074074 996.8342592592594L493.5274074074074 992.3942592592593Q495.2674074074074 993.3542592592594 497.1474074074074 994.0642592592594Q499.0374074074074 994.7842592592594 500.9974074074074 995.1742592592593T505.0174074074074 995.5642592592594Q507.3274074074074 995.5642592592594 509.18740740740736 994.9242592592593T512.1274074074074 992.8942592592593T513.2074074074073 989.2442592592595Q513.2074074074073 987.2642592592595 512.0874074074075 985.9842592592595Q510.9674074074074 984.6942592592595 508.8474074074074 983.7542592592595Q506.7274074074074 982.8242592592594 503.7174074074074 981.8842592592594Q500.1774074074074 980.7642592592595 497.68740740740736 979.4642592592595Q495.18740740740736 978.1642592592596 493.8774074074074 976.2542592592595Q492.55740740740737 974.3442592592594 492.55740740740737 971.3842592592594Q492.55740740740737 968.4942592592595 493.9274074074074 966.2042592592595Q495.2874074074074 963.9242592592595 497.9974074074074 962.6042592592594Q500.69740740740735 961.2942592592594 504.7074074074074 961.2942592592594Q506.3674074074074 961.2942592592594 507.98740740740743 961.5242592592595Q509.6174074074074 961.7642592592595 511.09740740740745 962.1642592592596T513.8074074074075 963.0642592592594Q515.0274074074074 963.5542592592594 515.8874074074074 964.0742592592594L515.4174074074074 968.5442592592594Q513.8274074074075 967.4842592592595 512.0574074074075 966.7642592592595Q510.29740740740743 966.0542592592594 508.54740740740743 965.7042592592595Q506.8074074074074 965.3542592592596 505.32740740740746 965.3542592592596Q503.21740740740745 965.3542592592596 501.45740740740746 965.9742592592595Q499.6874074074074 966.5942592592596 498.60740740740744 967.8842592592596T497.5274074074074 971.2042592592595Q497.5274074074074 972.9642592592595 498.4374074074074 974.1342592592596T501.3074074074074 976.2342592592595Q503.2774074074074 977.1542592592596 506.3674074074074 978.1442592592596Q510.83740740740745 979.5442592592594 513.3974074074074 980.9942592592595Q515.9574074074075 982.4342592592595 517.0374074074074 984.3342592592596Q518.1174074074074 986.2242592592595 518.1174074074074 988.9842592592595Q518.1174074074074 992.0242592592595 516.7774074074074 994.4142592592596Q515.4374074074074 996.8142592592594 512.6074074074074 998.2142592592595T505.29740740740743 999.6142592592594M541.6474074074074 999.6142592592594Q536.9474074074075 999.6142592592594 533.4074074074074 998.0942592592594T527.5174074074074 993.9142592592596Q525.1674074074074 991.2442592592595 523.9974074074074 987.7842592592594Q522.8274074074075 984.3342592592594 522.8274074074075 980.4842592592595Q522.8274074074075 975.0742592592596 525.0174074074074 970.7342592592595Q527.2174074074074 966.3942592592596 531.3774074074074 963.8442592592596T541.4974074074074 961.2942592592597Q546.0174074074075 961.2942592592597 549.4874074074074 962.7742592592597T555.3274074074075 966.8842592592596Q557.6874074074075 969.5142592592597 558.8874074074074 972.9942592592597T560.0874074074075 980.4542592592597Q560.0874074074075 985.9442592592598 557.8974074074074 990.2742592592597Q555.7174074074074 994.6042592592598 551.5774074074075 997.1142592592598Q547.4474074074075 999.6142592592598 541.6474074074074 999.6142592592598M541.5174074074075 995.5642592592599Q545.0774074074075 995.5642592592599 547.6574074074074 994.3242592592599Q550.2274074074074 993.0942592592598 551.9074074074074 990.9642592592597Q553.5874074074075 988.8242592592599 554.3874074074074 986.1142592592598Q555.1974074074075 983.3942592592598 555.1974074074075 980.4542592592597Q555.1974074074075 977.2842592592599 554.3274074074075 974.5442592592599Q553.4574074074075 971.7942592592599 551.7274074074074 969.7342592592599Q549.9974074074074 967.6642592592598 547.4474074074075 966.5042592592599Q544.8974074074074 965.3542592592598 541.5174074074074 965.3542592592598Q538.0374074074075 965.3542592592598 535.4474074074075 966.5742592592599T531.1474074074074 969.91425925926Q529.4274074074074 972.0342592592599 528.5674074074075 974.7542592592599Q527.7174074074074 977.46425925926 527.7174074074074 980.45425925926Q527.7174074074074 983.47425925926 528.5474074074075 986.17425925926Q529.3774074074074 988.88425925926 531.0774074074075 991.0042592592602Q532.7874074074075 993.11425925926 535.3874074074074 994.3442592592601Q537.9874074074074 995.5642592592601 541.5174074074074 995.5642592592601M572.1474074074074 999.0442592592601H567.5174074074074V961.9742592592602H590.1174074074074V966.0242592592601H570.1474074074074L572.1474074074074 962.64425925926ZM577.8174074074075 982.4542592592602H571.0274074074074V978.5342592592601H589.0774074074075V982.4542592592602ZM611.5674074074075 999.0442592592601H606.8574074074074V962.6442592592603L608.7274074074074 966.1542592592602H594.1474074074074V961.9742592592602H624.2474074074074V966.1542592592602H609.6674074074074L611.5674074074075 962.6442592592603ZM643.7774074074074 999.0442592592601H637.9574074074073Q637.1774074074074 996.2942592592601 636.2674074074074 993.1442592592603T634.5774074074075 987.3242592592601L631.2474074074074 975.7242592592602Q630.3574074074074 972.63425925926 629.2974074074075 968.9242592592602Q628.2274074074074 965.2242592592602 627.2974074074075 961.9742592592602H632.4974074074074Q633.5874074074075 965.9442592592602 634.7574074074074 970.3442592592601L636.9874074074074 978.7142592592602L640.9674074074074 993.4842592592602H641.4074074074074L645.2874074074075 978.5342592592601Q645.9574074074075 975.95425925926 646.7074074074075 973.11425925926L648.1874074074075 967.41425925926Q648.9274074074075 964.5742592592601 649.5974074074074 961.97425925926H655.0574074074075Q656.0974074074074 965.94425925926 657.2474074074075 970.2542592592599L659.4574074074075 978.5842592592601L663.4074074074074 993.4842592592599H663.8474074074074L667.8774074074074 978.5042592592599Q668.9174074074074 974.63425925926 670.0874074074075 970.2342592592599Q671.2574074074074 965.8442592592601 672.2974074074074 961.97425925926H677.5274074074074L675.5074074074074 968.9142592592593Q674.4574074074073 972.5542592592594 673.5474074074075 975.6242592592594L670.1674074074074 987.3242592592594Q669.3574074074074 990.1042592592594 668.4674074074074 993.2342592592595Q667.5674074074075 996.3642592592594 666.7574074074075 999.0442592592594H660.7274074074076Q659.6874074074075 995.2242592592593 658.5374074074075 990.9842592592595Q657.3774074074074 986.7442592592595 656.3574074074074 983.0342592592594L652.4074074074075 968.5742592592594H651.9374074074075L648.0674074074075 983.0342592592594Q647.0774074074075 986.7742592592595 645.9374074074075 991.0342592592594Q644.7874074074075 995.3042592592594 643.7774074074075 999.0442592592594M685.1974074074075 999.0442592592594H680.4374074074075Q681.5274074074075 996.0542592592594 682.7174074074074 992.7542592592595Q683.8974074074074 989.4542592592595 684.9874074074074 986.4842592592595L689.5874074074075 973.7442592592595Q690.8074074074075 970.3142592592594 691.8274074074075 967.5442592592594L693.8574074074074 961.9742592592593H700.0374074074075Q701.0574074074075 964.8342592592594 702.0474074074075 967.5842592592594Q703.0274074074075 970.3442592592594 704.2574074074074 973.7742592592595L708.8274074074075 986.5442592592594Q709.9174074074074 989.6042592592594 711.0774074074075 992.8442592592594L713.2974074074075 999.0442592592594H708.4174074074074Q707.2974074074075 995.7942592592594 706.1074074074074 992.3542592592594L703.8874074074074 985.8642592592594L697.1274074074074 966.2042592592593H696.6874074074074L689.8774074074074 985.6842592592593Q688.7574074074074 988.8542592592594 687.5574074074075 992.3242592592594Q686.3674074074074 995.7942592592594 685.1974074074074 999.0442592592594M706.8274074074075 989.7342592592595H687.2974074074074L687.7174074074073 986.0442592592594H706.4874074074073ZM724.1974074074074 999.0442592592594H719.5974074074074V961.9742592592593H732.1274074074074Q736.3674074074074 961.9742592592593 739.1874074074074 962.9742592592593T743.4174074074074 966.1842592592593Q744.8374074074075 968.3942592592593 744.8374074074075 972.0042592592595Q744.8374074074075 975.0442592592594 743.6574074074074 977.5742592592594Q742.4774074074073 980.0942592592594 739.7174074074073 981.6142592592594T732.2574074074074 983.1642592592593L733.7374074074074 981.1042592592594L739.5874074074075 988.4142592592593Q740.9674074074074 990.1042592592594 742.4974074074075 992.0242592592595Q744.0374074074075 993.9542592592593 745.4874074074075 995.7842592592594L748.0874074074075 999.0442592592594H742.5774074074075Q740.7274074074076 996.7042592592593 739.0274074074075 994.5242592592595Q737.3274074074075 992.3342592592594 735.6574074074075 990.2542592592595L729.0074074074075 981.6742592592593L731.8874074074075 983.9942592592595H723.3874074074075V980.1142592592594H730.4374074074076Q733.6874074074076 980.1142592592594 735.7874074074075 979.3642592592594Q737.8974074074076 978.6142592592594 738.9374074074076 976.9342592592595T739.9774074074076 972.4742592592595Q739.9774074074076 970.1642592592596 739.2374074074075 968.8242592592594T737.2874074074075 966.8542592592594Q736.0774074074076 966.2342592592595 734.6774074074076 966.0542592592594Q733.2674074074075 965.8742592592596 731.9674074074076 965.8742592592596H721.0474074074075L724.1974074074076 962.6442592592596ZM777.5174074074074 999.0442592592594H754.4374074074074V961.9742592592593H777.4674074074074V966.0042592592592H756.4374074074075L759.0374074074075 962.6442592592593V998.3442592592594L756.6974074074076 995.0142592592592H777.5174074074075ZM765.1974074074074 982.2242592592593H758.0174074074074V978.2942592592594H776.4274074074074V982.2242592592593ZM818.3374074074075 999.0442592592594H795.2574074074074V961.9742592592593H818.2874074074074V966.0042592592592H797.2574074074074L799.8574074074074 962.6442592592593V998.3442592592594L797.5174074074075 995.0142592592592H818.3374074074075ZM806.0174074074074 982.2242592592593H798.8374074074075V978.2942592592594H817.2474074074074V982.2242592592593ZM830.5874074074075 999.0442592592594H826.1174074074074V961.9742592592593H830.3574074074074Q833.6774074074074 966.6542592592593 836.7474074074073 970.9942592592593T842.8074074074074 979.5442592592592L850.8374074074073 990.8842592592594H851.2274074074073V961.9742592592593H855.7074074074073V999.0442592592594H851.5174074074073Q848.7574074074073 995.1442592592593 845.7174074074073 990.8442592592594L839.0374074074073 981.3942592592593L830.9474074074074 969.9742592592593H830.5874074074073ZM882.8774074074074 999.5942592592594Q878.0374074074075 999.5942592592594 874.3574074074074 998.1542592592593Q870.6774074074074 996.7042592592593 868.1874074074074 994.1042592592594Q865.6874074074074 991.5042592592592 864.3974074074074 988.0142592592592Q863.1174074074074 984.5142592592592 863.1174074074074 980.4342592592593Q863.1174074074074 974.8442592592592 865.4174074074074 970.5142592592592T871.9174074074074 963.7342592592593Q876.1174074074074 961.2942592592592 881.8074074074075 961.2942592592592Q883.7574074074075 961.2942592592592 885.5874074074075 961.5542592592592Q887.4274074074075 961.8142592592592 889.0474074074075 962.2742592592592Q890.6774074074075 962.7242592592593 892.0374074074075 963.2442592592593Q893.4074074074075 963.7642592592592 894.3874074074075 964.2842592592592L893.9774074074076 968.8042592592592Q891.8174074074076 967.6142592592591 889.7874074074075 966.8742592592594T885.8374074074075 965.7942592592592T882.0974074074074 965.4542592592593Q878.9974074074074 965.4542592592593 876.4174074074074 966.4642592592593Q873.8274074074075 967.4842592592593 871.9274074074074 969.4342592592593T869.0074074074074 974.1642592592593Q867.9774074074074 976.9442592592593 867.9774074074074 980.4542592592593Q867.9774074074074 983.6242592592591 868.8774074074074 986.3842592592591Q869.7674074074074 989.1442592592591 871.6274074074074 991.2242592592593T876.3774074074074 994.4542592592593Q879.2574074074074 995.6142592592591 883.2074074074075 995.6142592592591Q884.6674074074075 995.6142592592591 886.1274074074074 995.4742592592593Q887.5774074074075 995.3242592592592 888.9974074074074 995.0042592592592Q890.4174074074074 994.6742592592591 891.7874074074074 994.1742592592591Q893.1674074074074 993.6642592592591 894.4674074074073 992.964259259259L895.0174074074073 997.3842592592591Q894.1274074074073 997.794259259259 892.8174074074072 998.1842592592591T889.8974074074073 998.9042592592591Q888.2774074074073 999.224259259259 886.4974074074073 999.4142592592591Q884.7174074074073 999.5942592592589 882.8774074074073 999.5942592592589M895.0174074074073 997.3842592592589L890.5674074074072 997.464259259259V980.4342592592591H895.0174074074073ZM908.2974074074073 999.044259259259H903.5174074074073V961.9742592592588H908.2974074074073ZM922.4474074074072 999.044259259259H917.9774074074072V961.9742592592588H922.2074074074072Q925.5374074074073 966.6542592592589 928.6074074074072 970.9942592592588T934.6674074074072 979.5442592592588L942.6974074074071 990.8842592592589H943.0874074074071V961.9742592592588H947.5574074074071V999.044259259259H943.3774074074072Q940.6174074074072 995.1442592592589 937.5774074074072 990.8442592592589L930.8974074074073 981.3942592592589L922.8074074074073 969.9742592592588H922.4474074074072ZM980.2574074074073 999.044259259259H957.1674074074073V961.9742592592588H980.2074074074072V966.0042592592588H959.1774074074073L961.7774074074073 962.6442592592589V998.3442592592589L959.4374074074072 995.0142592592588H980.2574074074073ZM967.9374074074072 982.2242592592588H960.7574074074073V978.294259259259H979.1674074074073V982.2242592592588ZM1011.1274074074072 999.044259259259H988.0474074074071V961.9742592592588H1011.0774074074071V966.0042592592588H990.0474074074071L992.6474074074072 962.6442592592589V998.3442592592589L990.3074074074071 995.0142592592588H1011.1274074074072ZM998.8074074074071 982.2242592592588H991.6274074074072V978.294259259259H1010.0374074074072V982.2242592592588ZM1023.5074074074072 999.044259259259H1018.9074074074074V961.9742592592588H1031.4374074074074Q1035.6774074074074 961.9742592592588 1038.4974074074073 962.9742592592588T1042.7374074074073 966.1842592592589Q1044.1474074074072 968.3942592592589 1044.1474074074072 972.004259259259Q1044.1474074074072 975.044259259259 1042.9674074074073 977.574259259259Q1041.7874074074075 980.0942592592589 1039.0274074074073 981.6142592592589Q1036.2774074074073 983.1342592592589 1031.5674074074072 983.1642592592589L1033.0474074074073 981.1042592592589L1038.8974074074072 988.4142592592589Q1040.2774074074073 990.1042592592589 1041.8074074074073 992.024259259259Q1043.3474074074072 993.9542592592588 1044.7974074074073 995.784259259259L1047.3974074074072 999.044259259259H1041.8874074074074Q1040.0474074074073 996.7042592592588 1038.3374074074072 994.524259259259Q1036.6374074074074 992.3342592592589 1034.9774074074073 990.254259259259L1028.3174074074072 981.6742592592589L1031.2074074074073 983.994259259259H1022.6974074074074V980.1142592592589H1029.7474074074073Q1032.9974074074073 980.1142592592589 1035.1074074074072 979.3642592592589Q1037.2074074074073 978.6142592592589 1038.2474074074073 976.9342592592591T1039.2874074074073 972.474259259259Q1039.2874074074073 970.1642592592591 1038.5474074074073 968.824259259259T1036.5974074074072 966.8542592592589Q1035.3874074074072 966.234259259259 1033.9874074074073 966.054259259259Q1032.5774074074072 965.8742592592591 1031.2774074074073 965.8742592592591H1020.3574074074072L1023.5074074074072 962.6442592592591Z "></path><path fill="#333" d="M766.7254074074074 769.4702592592594C745.0414074074074 769.4702592592594 723.3574074074074 769.4082592592594 701.6734074074075 769.5332592592594C698.5534074074073 769.5482592592593 696.7914074074074 768.5662592592594 695.2314074074075 765.8042592592594A29686 29686 0 0 0 630.1634074074075 651.0352592592594C628.6654074074074 648.3992592592593 628.8064074074074 646.4492592592594 630.2574074074074 643.9222592592594A32093 32093 0 0 0 695.7454074074074 528.9342592592593C697.2434074074074 526.2982592592593 698.9594074074074 525.4242592592593 701.9234074074075 525.4242592592593Q767.1634074074075 525.5412592592594 832.4014074074074 525.4242592592593C835.3194074074074 525.4242592592593 837.0194074074075 526.2352592592594 838.5324074074074 528.9182592592593A21986 21986 0 0 0 903.1634074074075 642.5962592592593C905.2234074074074 646.1842592592594 905.2074074074073 648.8822592592594 903.1634074074075 652.4702592592594A20402 20402 0 0 0 839.2194074074074 764.7602592592594C837.2374074074073 768.2702592592594 835.0534074074073 769.5952592592594 830.9824074074074 769.5482592592595C809.5634074074073 769.3462592592595 788.1444074074074 769.4552592592595 766.7104074074074 769.4552592592595ZM721.8454074074075 576.4522592592593V728.4582592592594C764.9314074074075 703.9982592592594 807.3484074074074 679.9112592592594 850.4824074074074 655.4182592592593C807.2234074074074 628.8682592592593 764.8854074074075 602.8782592592594 721.8444074074075 576.4522592592593M726.3214074074074 571.0702592592593C768.5194074074075 596.9662592592593 809.8754074074075 622.3472592592593 852.1674074074074 648.3052592592594C851.7144074074074 644.8892592592593 851.5114074074074 642.6112592592593 851.1064074074075 640.3802592592593C845.1784074074075 607.3082592592593 839.2194074074075 574.2522592592593 833.3064074074075 541.1802592592594C832.4794074074075 536.5472592592594 832.4484074074074 536.4382592592593 827.8154074074075 537.9502592592594A158846 158846 0 0 0 747.8494074074074 563.9402592592594C740.9854074074075 566.1712592592594 734.1534074074075 568.4642592592594 726.3064074074075 571.0542592592594ZM714.0604074074074 725.5102592592593V578.3242592592594C689.1624074074074 602.2542592592594 664.9674074074073 625.5142592592595 640.3974074074074 649.1322592592594C664.8574074074074 674.4982592592594 689.0374074074074 699.5822592592594 714.0604074074074 725.5252592592594ZM727.7414074074075 733.2472592592594C729.2234074074074 733.8092592592593 729.9094074074073 734.1522592592594 730.6114074074073 734.3242592592594C761.9514074074074 742.1242592592594 793.3084074074075 749.9392592592594 824.6644074074075 757.7082592592594C829.7184074074073 758.9562592592594 829.7034074074074 758.8622592592594 830.8734074074074 753.8702592592593C837.5814074074074 725.0732592592593 844.3204074074074 696.2752592592594 851.0134074074074 667.4782592592594C851.3094074074074 666.1982592592594 851.4034074074074 664.8722592592594 851.7304074074074 662.6102592592594C810.0624074074074 686.3382592592593 769.3154074074073 709.5662592592594 727.7254074074074 733.2472592592594ZM704.5594074074074 532.6002592592594C705.2464074074073 534.3782592592594 705.6514074074073 535.5952592592594 706.1824074074074 536.7342592592594C710.1134074074073 545.2042592592594 714.2474074074073 553.5822592592594 717.9134074074074 562.1622592592594C719.3014074074074 565.4072592592594 720.8934074074074 565.5622592592593 723.8414074074074 564.5962592592593C752.9194074074073 555.0642592592594 782.0454074074073 545.6422592592594 811.1394074074074 536.1722592592594C814.0564074074073 535.2212592592593 816.9424074074074 534.1442592592593 819.8284074074074 533.1302592592593C819.7654074074073 532.9592592592594 819.6884074074073 532.7722592592594 819.6254074074075 532.6002592592594ZM843.2594074074074 551.3672592592593C842.9634074074074 551.4922592592593 842.6514074074073 551.6172592592593 842.3544074074074 551.7572592592594C843.0564074074074 555.6882592592593 843.7744074074074 559.6352592592593 844.4604074074074 563.5662592592594C849.4684074074073 591.7712592592593 854.5074074074074 619.9602592592594 859.4364074074074 648.1802592592594C859.9044074074075 650.8802592592593 860.7624074074074 651.6282592592593 863.5234074074074 650.9422592592593C869.8104074074074 649.3972592592593 876.2064074074074 648.2272592592594 882.5244074074074 646.8232592592594C886.6584074074074 645.9032592592594 890.7614074074074 644.8422592592594 895.5044074074074 643.7032592592593A262546 262546 0 0 0 843.2444074074074 551.3672592592593ZM642.9094074074073 635.6692592592594L643.4694074074074 636.1842592592593C643.8754074074075 635.9192592592594 644.3434074074074 635.7002592592594 644.7024074074075 635.3572592592593C667.0424074074074 614.0012592592593 689.3494074074074 592.6292592592594 711.7204074074075 571.3192592592593C713.5144074074074 569.6192592592594 713.3734074074075 568.2152592592594 712.4374074074074 566.2182592592594C708.4444074074074 557.7782592592594 704.5914074074074 549.2612592592593 700.6444074074075 540.7902592592593C700.2074074074073 539.8382592592593 699.5214074074074 539.0122592592594 698.6004074074074 537.5762592592594C679.7874074074075 570.7262592592593 661.3474074074074 603.1902592592594 642.9084074074074 635.6692592592594M896.0654074074075 650.5362592592594C883.9284074074073 653.1262592592593 873.0244074074075 655.3722592592594 862.2134074074074 657.9152592592594C861.0594074074074 658.1802592592594 859.7794074074075 660.1152592592593 859.4524074074075 661.4872592592594C852.6354074074075 690.0972592592594 845.9274074074075 718.7552592592594 839.2344074074074 747.3972592592595C839.0314074074074 748.2702592592594 839.0164074074074 749.1902592592594 838.9074074074074 750.0952592592594C839.1254074074075 750.1422592592594 839.3434074074074 750.2052592592595 839.5624074074074 750.2512592592594C858.2044074074074 717.3662592592594 876.8304074074074 684.4972592592594 896.0814074074074 650.5362592592594ZM812.8854074074075 762.5442592592594L812.9794074074075 762.0762592592594C812.1844074074074 761.7642592592593 811.4194074074074 761.3742592592594 810.5934074074074 761.1712592592594C781.6704074074074 753.8862592592593 752.7334074074074 746.6482592592594 723.8254074074075 739.3162592592594C720.9394074074074 738.5822592592594 718.9584074074074 738.9102592592594 717.4614074074075 741.8272592592593C715.6824074074075 745.2752592592594 713.4364074074075 748.4882592592594 711.4394074074075 751.8112592592594C709.4114074074075 755.1962592592594 707.4294074074076 758.6132592592594 705.1214074074076 762.5282592592594H812.8864074074074ZM699.2404074074075 758.6752592592593C703.4524074074075 751.6242592592594 706.9624074074075 745.2902592592593 710.9554074074074 739.2852592592594C713.0774074074075 736.0862592592594 712.8434074074074 734.1362592592593 710.1604074074074 731.3752592592593C690.5974074074074 711.3452592592594 671.2074074074073 691.1432592592594 651.7534074074074 671.0192592592593C650.9274074074074 670.1612592592594 650.0064074074074 669.3962592592593 649.1334074074075 668.6012592592593C648.9144074074075 668.7882592592593 648.6964074074074 668.9602592592594 648.4774074074074 669.1472592592593A220631 220631 0 0 1 699.2404074074075 758.6912592592594Z "></path></g><rect width="560" height="487" x="470" y="506.5" id="space-saver" fill="transparent" stroke="transparent"></rect></g></svg>