<?xml version="1.0" standalone="no"?>
<!DOCTYPE svg PUBLIC "-//W3C//DTD SVG 20010904//EN"
 "http://www.w3.org/TR/2001/REC-SVG-20010904/DTD/svg10.dtd">

<svg version="1.0" xmlns="http://www.w3.org/2000/svg"
  width="500" height="500" viewBox="0 0 3336.000000 2824.000000"
  preserveAspectRatio="xMidYMid meet" id="tm-logo">

<g transform="translate(0,2824) scale(0.1,-0.1)" fill="none" stroke="#fff" stroke-width="30">

<path d="M7350 26420 c-47 -12 -112 -27 -145 -34 -95 -21 -429 -104 -550 -136
-60 -16 -202 -52 -315 -80 -113 -29 -239 -61 -280 -72 -41 -10 -102 -25 -135
-32 -76 -17 -316 -76 -510 -126 -82 -22 -229 -58 -325 -81 -96 -22 -238 -58
-315 -79 -77 -20 -185 -48 -240 -60 -144 -33 -339 -81 -585 -143 -118 -30
-258 -64 -310 -76 -96 -22 -130 -33 -185 -56 -16 -7 -49 -16 -72 -20 -44 -7
-76 -35 -88 -78 -11 -36 -36 -88 -75 -157 -21 -36 -108 -204 -193 -375 -85
-170 -240 -474 -344 -675 -247 -475 -373 -720 -704 -1375 -150 -297 -310 -612
-356 -700 -46 -88 -138 -270 -205 -405 -156 -315 -155 -302 -65 -490 35 -74
149 -306 252 -515 212 -430 283 -576 467 -960 71 -148 133 -274 138 -280 4 -5
76 -152 160 -325 138 -285 343 -706 627 -1286 57 -116 113 -220 126 -231 16
-15 48 -24 117 -33 52 -7 102 -17 112 -21 9 -5 58 -16 110 -24 51 -8 140 -24
198 -35 98 -19 326 -57 485 -81 39 -6 75 -14 80 -19 6 -4 33 -11 60 -15 28 -4
101 -15 164 -26 62 -10 135 -19 161 -19 25 0 50 -3 54 -7 3 -4 12 -8 19 -10
29 -7 238 -44 297 -53 36 -6 99 -19 140 -30 76 -20 120 -28 315 -55 61 -8 124
-19 140 -25 31 -9 286 -53 385 -65 30 -4 57 -11 60 -15 6 -9 160 -36 313 -55
65 -8 126 -19 135 -24 9 -5 53 -14 97 -20 86 -12 154 -25 225 -41 25 -6 74
-14 110 -19 60 -8 67 -7 87 14 12 12 43 65 69 116 26 52 62 117 79 144 18 28
60 104 95 170 34 66 68 127 75 135 11 14 230 407 319 575 38 70 58 108 110
200 16 28 56 100 89 160 143 260 202 367 273 490 26 44 98 172 162 285 63 113
133 237 155 275 48 85 143 260 205 375 24 47 68 126 97 175 59 100 70 121 140
250 27 50 64 112 82 139 53 77 48 100 -49 244 -46 66 -108 154 -139 194 -30
40 -112 156 -181 258 -171 253 -483 710 -544 795 -28 39 -85 122 -128 185 -43
63 -92 130 -108 148 -20 24 -27 40 -23 55 5 17 4 19 -4 7 -8 -11 -11 -11 -11
-2 0 7 -10 24 -23 38 -20 21 -39 27 -124 38 -55 7 -105 16 -110 19 -15 10
-324 70 -518 102 -44 7 -129 24 -190 38 -268 63 -337 77 -368 77 -17 0 -54 7
-82 15 -27 9 -75 20 -105 25 -30 5 -75 14 -100 19 -49 12 -234 48 -315 61 -27
5 -66 14 -86 19 -20 6 -69 17 -110 25 -41 7 -117 23 -169 35 -52 12 -104 23
-115 26 -23 5 -44 -30 -90 -150 -15 -38 -41 -99 -57 -135 -17 -36 -36 -81 -43
-100 -7 -19 -29 -69 -48 -110 -19 -41 -65 -145 -100 -230 -36 -85 -72 -168
-81 -185 -8 -16 -38 -84 -66 -150 -29 -66 -65 -148 -81 -182 -16 -34 -29 -66
-29 -72 0 -5 -20 -51 -44 -103 -91 -193 -106 -230 -123 -293 -21 -80 -17 -86
85 -110 40 -9 75 -21 78 -26 3 -5 15 -9 28 -9 12 0 31 -8 42 -19 11 -10 31
-22 45 -26 13 -4 40 -16 59 -26 19 -11 41 -19 48 -19 16 0 73 -25 225 -101 66
-32 134 -61 153 -65 19 -3 37 -10 40 -15 3 -5 12 -9 20 -9 14 0 71 -25 250
-111 33 -16 68 -29 77 -29 9 0 18 -4 22 -9 3 -5 18 -12 34 -16 16 -3 37 -15
47 -26 27 -30 56 -24 77 19 28 58 153 333 216 477 55 124 59 130 92 136 23 5
66 0 134 -17 88 -22 194 -45 345 -75 25 -5 65 -13 89 -18 55 -11 104 -61 161
-164 15 -27 135 -194 235 -326 44 -59 49 -71 49 -116 -1 -34 -9 -64 -26 -95
-72 -128 -148 -260 -172 -300 -15 -25 -45 -81 -67 -125 -23 -44 -51 -98 -64
-120 -13 -22 -29 -51 -35 -65 -6 -13 -15 -27 -19 -30 -4 -3 -34 -54 -66 -115
-32 -60 -97 -180 -146 -265 -266 -473 -338 -601 -367 -660 -56 -111 -76 -127
-144 -109 -24 6 -92 19 -153 29 -217 36 -303 52 -470 85 -93 19 -197 39 -230
44 -220 37 -537 92 -630 110 -240 45 -392 71 -414 71 -36 0 -99 21 -115 39 -8
9 -32 57 -54 106 -22 50 -83 179 -136 288 -53 110 -96 200 -96 202 0 2 -80
167 -179 367 -172 350 -384 788 -611 1263 -21 44 -49 96 -63 116 -14 20 -28
59 -32 86 -7 52 4 85 69 213 19 36 70 135 113 220 44 85 129 250 188 365 59
116 158 307 220 425 61 118 200 391 308 607 108 215 220 433 248 485 28 51 96
184 151 296 78 159 107 208 130 222 16 10 276 79 576 154 301 75 608 153 682
172 74 20 173 45 220 56 47 10 137 32 200 49 63 16 270 68 460 115 190 47 509
126 710 176 l365 90 815 -6 c1440 -11 3171 -32 3480 -41 85 -3 497 -7 915 -10
418 -3 843 -8 945 -10 206 -5 762 -12 1570 -20 294 -3 753 -7 1020 -10 267 -3
782 -7 1145 -10 363 -3 748 -8 855 -10 107 -3 645 -10 1195 -15 1237 -12 1866
-20 1925 -25 25 -3 522 -9 1105 -14 1556 -15 2063 -21 2225 -26 80 -3 564 -10
1075 -15 518 -6 964 -15 1008 -21 90 -12 113 -19 267 -89 63 -29 149 -65 190
-80 103 -39 313 -127 445 -187 61 -28 137 -60 169 -72 61 -23 222 -92 336
-144 36 -16 76 -33 90 -37 21 -7 479 -200 545 -230 207 -94 289 -129 425 -180
47 -17 97 -38 112 -46 14 -8 33 -14 42 -14 26 0 63 -46 86 -107 40 -108 162
-417 262 -663 187 -461 381 -945 394 -985 14 -44 55 -149 104 -270 46 -113 41
-176 -30 -345 -29 -69 -76 -191 -106 -272 -50 -139 -83 -225 -214 -563 -97
-250 -320 -819 -330 -840 -4 -11 -11 -33 -15 -50 -4 -16 -36 -103 -71 -192
-35 -90 -64 -168 -64 -174 0 -25 -44 -81 -79 -99 -86 -45 -162 -80 -174 -80
-22 0 -106 -29 -227 -80 -63 -26 -155 -62 -205 -80 -49 -18 -114 -43 -143 -56
-29 -13 -56 -24 -60 -24 -4 0 -61 -20 -127 -46 -66 -25 -136 -52 -155 -59 -66
-24 -115 -43 -220 -85 -58 -23 -145 -57 -195 -75 -49 -19 -173 -66 -275 -105
-102 -40 -219 -85 -260 -100 -41 -15 -101 -39 -132 -54 -67 -30 -177 -51 -216
-41 -30 7 -92 62 -92 81 0 6 -7 14 -15 18 -8 3 -15 10 -15 16 0 11 -49 77
-113 154 -38 46 -120 140 -447 517 -63 73 -175 205 -249 294 -74 88 -154 180
-177 205 -23 25 -56 63 -75 85 -18 22 -65 74 -103 115 -38 41 -79 91 -91 111
-13 19 -41 54 -64 76 -47 46 -75 105 -66 140 3 14 36 57 73 97 37 39 78 87 92
106 14 19 43 55 65 80 23 25 61 70 85 100 25 30 47 57 50 60 15 15 121 141
150 180 19 25 48 61 66 80 64 70 163 188 288 345 71 88 147 180 170 205 23 25
66 75 95 113 48 61 56 67 89 67 62 0 209 -29 300 -60 48 -16 123 -33 167 -39
53 -6 83 -15 91 -26 7 -9 17 -46 24 -82 11 -66 62 -448 80 -603 6 -47 15 -110
21 -140 6 -30 16 -109 22 -175 l12 -120 75 3 c71 3 215 20 360 42 170 27 284
41 423 56 84 8 188 24 233 34 44 10 116 22 160 25 43 3 107 8 142 11 l62 6 0
34 c0 19 -9 90 -20 157 -11 68 -26 181 -34 253 -23 196 -45 373 -56 434 -5 30
-16 109 -24 175 -20 161 -54 394 -60 403 -2 4 -9 61 -15 127 -12 124 -29 242
-61 405 -10 52 -21 121 -25 153 -8 67 -16 73 -113 83 -71 7 -191 30 -257 49
-45 12 -105 24 -360 70 -86 15 -446 89 -535 110 -60 14 -213 43 -337 65 -28 5
-80 16 -115 24 -35 9 -103 22 -153 30 -49 8 -121 22 -160 31 -38 8 -104 22
-145 30 -41 8 -106 22 -145 29 -150 32 -152 31 -186 -5 -17 -18 -45 -54 -61
-79 -17 -25 -48 -63 -68 -85 -20 -22 -86 -98 -146 -170 -59 -71 -111 -132
-114 -135 -3 -3 -28 -32 -55 -65 -27 -33 -68 -81 -90 -107 -22 -25 -44 -52
-50 -60 -5 -7 -31 -38 -56 -68 -25 -30 -94 -116 -154 -190 -60 -74 -136 -167
-169 -205 -34 -39 -95 -110 -136 -159 -41 -48 -85 -100 -98 -115 -13 -14 -75
-89 -138 -166 -63 -77 -135 -165 -160 -195 -26 -30 -81 -97 -123 -149 -78 -95
-134 -163 -161 -191 -8 -9 -33 -38 -55 -65 -21 -28 -42 -52 -45 -55 -3 -3 -27
-32 -55 -65 -27 -33 -54 -65 -60 -71 -5 -6 -46 -55 -90 -110 -44 -54 -104
-125 -132 -159 -29 -33 -81 -96 -115 -140 -34 -44 -95 -120 -135 -168 -40 -48
-73 -93 -73 -100 0 -7 8 -24 17 -37 14 -21 117 -145 133 -160 36 -35 239 -265
322 -365 59 -72 120 -143 135 -160 16 -16 46 -52 68 -80 22 -27 55 -68 75 -91
36 -41 47 -54 140 -164 30 -36 79 -92 110 -125 30 -33 78 -87 105 -119 28 -33
82 -96 120 -140 39 -45 106 -124 150 -176 44 -52 116 -136 160 -185 71 -81
127 -147 325 -384 49 -59 179 -210 324 -376 29 -33 110 -127 181 -210 70 -82
150 -176 178 -208 28 -31 60 -70 71 -86 18 -23 115 -134 166 -190 15 -17 173
-206 208 -251 19 -23 23 -24 58 -13 78 22 350 120 381 136 18 9 38 17 46 17 7
0 35 11 63 24 86 41 118 54 149 61 36 8 156 55 170 67 5 4 16 8 25 8 8 0 31 9
51 19 19 11 55 25 80 32 24 7 53 19 64 26 11 7 27 13 35 13 9 0 53 16 97 35
45 19 87 35 93 35 12 0 114 41 153 61 9 5 71 27 137 49 66 22 128 44 137 49
47 24 135 61 148 61 7 0 16 4 19 9 3 5 40 17 81 26 41 10 75 22 75 26 0 5 7 9
15 9 14 0 33 7 138 54 32 14 63 26 70 26 7 0 17 4 22 8 6 5 30 15 55 22 25 7
77 28 115 46 39 18 92 38 119 44 26 6 61 17 77 25 16 9 61 27 101 41 40 14
100 36 133 49 237 94 319 125 326 125 12 0 258 97 289 114 14 7 39 17 55 20
17 4 89 32 160 61 72 29 148 56 170 60 50 9 115 44 115 62 0 8 6 16 14 19 8 3
18 20 21 37 4 18 15 52 25 77 40 100 152 387 162 415 6 17 17 44 24 60 7 17
36 91 63 165 47 127 85 227 115 295 24 54 83 208 121 315 32 90 87 236 140
370 76 192 211 547 290 760 23 62 222 571 280 715 31 77 70 179 87 227 l31 87
-22 68 c-12 37 -60 158 -105 268 -46 110 -99 243 -119 295 -34 93 -113 291
-183 460 -20 47 -48 117 -64 155 -27 65 -221 560 -277 705 -14 36 -29 70 -33
75 -4 6 -23 55 -43 110 -19 55 -52 138 -72 185 -37 85 -102 243 -234 570 -39
96 -76 184 -82 194 -14 24 -29 72 -34 105 -5 35 -48 67 -108 81 -29 7 -83 27
-122 45 -155 72 -284 125 -304 125 -11 0 -21 4 -21 9 0 5 -10 13 -22 17 -39
11 -330 135 -393 166 -33 16 -100 45 -148 64 -49 19 -96 39 -105 44 -21 12
-220 97 -367 157 -60 25 -148 61 -195 80 -47 19 -107 44 -135 55 -27 11 -77
32 -110 48 -33 16 -100 45 -150 65 -49 21 -126 53 -170 72 -123 54 -215 93
-265 114 -73 29 -262 109 -305 128 -22 10 -96 41 -165 69 -69 28 -192 78 -274
112 l-149 61 -481 4 c-265 3 -850 7 -1301 10 -451 3 -905 7 -1010 10 -104 3
-658 10 -1230 15 -1224 11 -1790 18 -2085 25 -226 6 -1496 19 -3405 35 -627 5
-1230 12 -1340 15 -110 3 -447 7 -750 10 -302 3 -710 7 -905 10 -690 10 -1741
24 -2205 30 -258 3 -612 7 -785 10 -173 3 -459 7 -635 10 -578 9 -1100 15
-1775 20 -366 3 -755 7 -865 10 -110 3 -373 7 -585 10 -360 4 -391 3 -470 -15z"/>


<path d="M11795 22142 c-2 -2 -311 -5 -687 -6 l-683 -1 4 -4230 c7 -7107 6
-10924 -2 -12851 l-9 -1842 34 -3 c18 -2 349 -3 735 -1 l703 3 2 7412 c2 4077
0 7632 -4 7901 -8 513 -5 566 31 566 18 0 63 -76 149 -255 57 -117 295 -591
302 -600 8 -11 140 -267 320 -620 106 -207 183 -357 288 -555 25 -47 94 -182
154 -300 61 -118 134 -260 163 -315 76 -144 169 -324 291 -562 59 -114 133
-255 164 -313 32 -58 82 -154 113 -215 67 -134 180 -355 272 -530 37 -71 81
-157 98 -190 17 -33 70 -134 117 -225 150 -284 208 -396 358 -690 79 -157 158
-310 174 -340 17 -30 67 -127 112 -215 45 -88 118 -227 161 -310 43 -82 104
-199 135 -260 31 -60 70 -135 87 -165 l31 -55 6 -595 c6 -660 7 -7447 1 -7495
-3 -25 -6 -467 -5 -845 l0 -95 743 0 742 0 3 4455 c2 3176 7 4465 14 4490 6
19 21 53 33 75 35 63 141 266 230 440 44 88 88 171 97 185 16 26 83 153 216
410 41 80 88 170 105 200 17 30 52 96 78 145 25 50 75 144 109 210 35 66 105
201 155 300 96 189 182 353 245 470 55 101 193 369 267 518 35 71 74 145 87
165 26 42 172 320 388 742 55 107 103 197 107 200 4 3 38 68 76 145 38 77 97
192 131 255 34 63 85 162 114 220 29 58 76 146 103 195 27 50 98 185 157 300
59 116 158 305 220 420 115 214 138 259 208 400 32 66 211 417 307 605 13 25
38 80 55 122 37 90 76 138 114 138 14 0 26 -3 27 -7 14 -95 18 -13519 5
-14951 l-9 -982 74 0 c41 0 375 0 742 -1 l668 -2 0 9024 c0 4963 0 9223 0
9467 l-1 442 -742 0 c-409 0 -748 -4 -754 -8 -16 -11 -50 -72 -204 -367 -35
-66 -79 -149 -98 -185 -19 -36 -60 -112 -90 -170 -66 -127 -144 -275 -185
-350 -17 -30 -79 -152 -140 -270 -60 -118 -113 -219 -117 -225 -5 -5 -38 -68
-75 -140 -37 -71 -75 -143 -85 -160 -10 -16 -54 -100 -98 -185 -44 -85 -105
-204 -137 -265 -74 -140 -237 -457 -334 -648 -103 -202 -331 -637 -375 -717
-20 -36 -55 -103 -78 -150 -22 -47 -61 -121 -86 -165 -45 -79 -66 -119 -251
-480 -51 -99 -97 -184 -101 -190 -5 -5 -27 -48 -50 -95 -24 -47 -68 -132 -100
-190 -32 -58 -115 -217 -185 -355 -70 -137 -140 -272 -155 -300 -15 -27 -42
-79 -61 -115 -18 -36 -43 -82 -56 -102 -12 -20 -65 -122 -118 -225 -52 -103
-101 -199 -110 -213 -8 -14 -36 -70 -63 -125 -72 -148 -196 -386 -225 -432
-15 -23 -53 -95 -85 -160 -54 -108 -147 -289 -263 -510 -70 -135 -224 -432
-306 -592 -82 -162 -88 -171 -113 -171 -31 0 -41 17 -203 345 -25 50 -74 146
-110 215 -66 126 -101 194 -284 550 -55 107 -113 218 -129 245 -17 28 -43 79
-58 115 -16 36 -52 106 -80 155 -29 50 -62 115 -75 145 -13 30 -31 66 -41 80
-9 14 -49 88 -87 165 -104 207 -264 518 -275 532 -5 6 -51 94 -102 195 -242
477 -409 803 -468 913 -75 138 -206 393 -406 785 -191 377 -390 757 -478 915
-22 39 -46 86 -54 105 -7 19 -39 85 -71 145 -68 131 -182 352 -292 565 -206
401 -330 639 -380 730 -22 41 -77 147 -122 235 -45 88 -104 201 -130 250 -26
50 -94 180 -150 290 -57 110 -126 243 -154 295 -28 52 -72 138 -97 192 l-47
96 -44 4 c-24 2 -46 2 -48 0z"/>
</g>
</svg>
