<?xml version="1.0" standalone="no"?>
<!DOCTYPE svg PUBLIC "-//W3C//DTD SVG 20010904//EN"
 "http://www.w3.org/TR/2001/REC-SVG-20010904/DTD/svg10.dtd">
<svg version="1.0" xmlns="http://www.w3.org/2000/svg"
 width="500.000000pt" height="500.000000pt" viewBox="0 0 500.000000 500.000000"
 preserveAspectRatio="xMidYMid meet">

<g transform="translate(0.000000,500.000000) scale(0.100000,-0.100000)"
fill="#000000" stroke="none">
<path d="M908 3813 c5 -450 6 -458 84 -529 54 -48 101 -67 173 -68 119 -2 205
82 205 199 0 71 -26 117 -81 145 -101 52 -199 -2 -199 -109 0 -79 103 -123
150 -64 28 35 23 73 -12 93 -33 18 -61 6 -66 -29 -3 -15 4 -24 23 -31 28 -11
26 -30 -4 -30 -25 0 -51 32 -51 62 0 32 39 68 74 68 36 0 86 -49 86 -85 0 -34
-25 -82 -49 -95 -28 -14 -87 -12 -120 4 -48 25 -61 57 -61 145 0 271 201 475
542 548 76 17 153 18 923 18 776 0 846 -1 925 -18 261 -56 439 -187 510 -375
10 -27 24 -85 30 -130 10 -74 9 -86 -9 -126 -51 -117 -222 -93 -221 31 1 70
92 110 138 60 40 -42 18 -107 -36 -107 -30 0 -28 18 4 30 18 7 24 16 22 31 -5
35 -33 47 -66 29 -35 -20 -40 -58 -12 -93 47 -59 150 -15 150 64 0 107 -98
161 -199 109 -115 -58 -108 -244 12 -314 60 -35 113 -42 182 -21 76 22 155 98
173 165 8 30 13 177 14 433 l3 387 -1621 0 -1621 0 5 -397z m867 326 c10 -16
6 -17 -95 -30 -181 -22 -329 -77 -454 -171 -115 -86 -196 -219 -220 -360 -7
-39 -17 -73 -24 -76 -9 -3 -12 74 -12 322 l0 326 399 0 c273 0 402 -3 406 -11z
m2305 -315 c0 -248 -3 -325 -12 -322 -7 3 -17 37 -24 76 -14 85 -59 186 -116
259 -108 140 -322 244 -563 273 -96 12 -100 13 -90 29 4 8 133 11 406 11 l399
0 0 -326z"/>
<path d="M1000 3908 l0 -213 34 63 c44 82 96 144 165 198 68 54 192 118 281
143 l65 19 -272 1 -273 1 0 -212z"/>
<path d="M3565 4101 c202 -58 371 -187 450 -345 l35 -69 0 217 0 216 -272 -1
-273 0 60 -18z"/>
<path d="M2002 3983 c27 -45 28 -114 4 -165 -10 -20 -16 -47 -14 -60 l3 -23
555 0 555 0 3 23 c2 13 -4 41 -12 63 -21 52 -20 105 4 157 l19 42 -569 0 -569
0 21 -37z m178 -78 c15 -19 6 -61 -16 -69 -27 -10 -53 3 -60 30 -8 30 11 54
41 54 12 0 28 -7 35 -15z m184 9 c24 -9 21 -61 -4 -74 -18 -10 -60 1 -60 15 0
2 -3 10 -6 18 -6 16 20 47 41 47 7 0 20 -3 29 -6z m228 -19 c10 -22 9 -29 -10
-47 -18 -19 -25 -20 -47 -10 -44 20 -28 82 22 82 15 0 27 -9 35 -25z m208 10
c15 -19 6 -61 -16 -69 -27 -10 -53 3 -60 30 -8 30 11 54 41 54 12 0 28 -7 35
-15z m188 3 c34 -34 -6 -90 -48 -68 -23 12 -28 65 -7 73 22 9 43 7 55 -5z"/>
<path d="M2010 2445 l0 -1245 540 0 540 0 0 1245 0 1245 -540 0 -540 0 0
-1245z m354 1089 c15 -14 16 -124 14 -1101 -3 -1022 -4 -1086 -20 -1097 -13
-8 -23 -8 -35 0 -17 11 -18 76 -21 1100 -2 1015 -1 1090 15 1102 22 16 28 15
47 -4z m218 -1 c17 -15 18 -62 18 -1090 0 -721 -3 -1081 -10 -1094 -12 -21
-50 -25 -68 -7 -9 9 -12 267 -12 1100 0 1025 1 1088 18 1097 24 14 33 13 54
-6z m223 -26 c3 -12 4 -503 3 -1090 -3 -936 -5 -1069 -18 -1077 -22 -14 -36
-12 -54 6 -14 14 -16 126 -16 1090 0 1065 0 1074 20 1094 16 16 25 18 40 10
11 -6 22 -21 25 -33z m-630 11 c3 -13 4 -506 3 -1097 -3 -989 -4 -1075 -20
-1084 -12 -8 -21 -7 -32 2 -14 12 -16 120 -16 1091 0 593 3 1085 6 1094 10 25
53 20 59 -6z m813 -1079 c2 -969 0 -1098 -13 -1103 -8 -3 -22 -3 -30 0 -13 5
-15 137 -15 1098 0 601 3 1096 7 1100 4 4 16 6 28 4 20 -3 20 -4 23 -1099z"/>
<path d="M1979 1142 c-15 -13 -22 -30 -22 -52 0 -22 7 -39 22 -52 22 -17 54
-18 571 -18 539 0 548 0 574 21 17 13 26 30 26 49 0 19 -9 36 -26 49 -26 21
-35 21 -574 21 -517 0 -549 -1 -571 -18z"/>
<path d="M1975 950 c-4 -18 -25 -45 -53 -70 l-47 -40 680 0 680 0 -52 45 c-28
25 -53 55 -55 68 l-3 22 -572 3 -571 2 -7 -30z"/>
<path d="M1670 735 l0 -65 885 0 885 0 0 65 0 65 -885 0 -885 0 0 -65z"/>
</g>
</svg>
