<svg xmlns="http://www.w3.org/2000/svg" xml:space="preserve" width="1500" height="487" viewBox="0 0 1500 487" data-version="1" data-id="lg_duDfIZm9a767c7gtaW"><g id="outer-wrapper" data-padding="20" transform="matrix(1,0,0,1,0,0)"><g id="inner-wrapper" transform="matrix(0.9642857142857143,0,0,0.9642857142857143,10,8.696428571428555)"><rect width="385.077" height="117.52" x="174.3684074074074" y="-215.10499999999996" fill="none" rx="0" ry="0" transform="translate(400.49 507.22)"></rect><path fill="#1b4571" d="M618.5574074074075 383.545H601.4974074074074V312.095L607.9474074074075 324.31500000000005H579.0874074074075V309.39500000000004H640.9174074074074V324.31500000000005H612.0574074074075L618.5574074074075 312.095ZM686.2474074074075 384.955Q676.2074074074075 384.955 668.8774074074074 381.85499999999996Q661.5474074074075 378.76499999999993 656.8174074074075 373.38499999999993Q652.0874074074075 367.99499999999995 649.7674074074075 361.085Q647.4574074074075 354.16499999999996 647.4574074074075 346.525Q647.4574074074075 335.705 651.7474074074075 326.945T664.5374074074075 313.03499999999997T685.7774074074075 307.885Q695.4474074074076 307.885 702.6774074074075 310.875T714.7174074074076 319.175Q719.5274074074075 324.475 721.9174074074075 331.445T724.3074074074075 346.415Q724.3074074074075 357.49500000000006 719.9174074074075 366.175Q715.5274074074075 374.86500000000007 707.0474074074075 379.90500000000003Q698.5674074074075 384.955 686.2474074074075 384.955M685.9874074074075 370.85499999999996Q691.1374074074074 370.85499999999996 694.9874074074075 368.9049999999999Q698.8274074074075 366.95499999999987 701.3774074074074 363.5249999999999T705.1974074074075 355.70499999999987Q706.4774074074074 351.3049999999999 706.4774074074074 346.41499999999985Q706.4774074074074 341.27499999999986 705.0974074074074 336.8249999999999T701.0974074074074 329.0549999999999Q698.4674074074074 325.7249999999999 694.6674074074074 323.8549999999999Q690.8774074074074 321.9749999999999 685.9874074074074 321.9749999999999Q680.9474074074074 321.9749999999999 677.0674074074075 323.9049999999999Q673.1974074074074 325.82499999999993 670.5974074074074 329.2349999999999Q667.9974074074073 332.6349999999999 666.6474074074074 337.0549999999999Q665.2874074074074 341.4749999999999 665.2874074074074 346.4149999999999T666.5874074074075 355.75499999999994Q667.8874074074074 360.1449999999999 670.4674074074073 363.5549999999999Q673.0374074074074 366.95499999999987 676.9174074074074 368.9049999999999Q680.7874074074074 370.85499999999996 685.9874074074073 370.85499999999996M749.3874074074074 383.545H733.4174074074074Q734.1974074074074 377.72499999999997 734.9274074074074 371.89500000000004Q735.6574074074074 366.075 736.4874074074073 359.26500000000004L739.5574074074073 334.40500000000003Q740.4374074074074 327.69500000000005 741.1674074074074 321.71500000000003T742.6774074074074 309.39500000000004H759.9974074074073Q762.4874074074073 315.735 764.7474074074073 321.535Q767.0174074074073 327.33500000000004 769.2474074074073 333.055L778.0874074074072 355.72499999999997H779.2374074074073L787.8174074074072 333.10499999999996Q789.9974074074073 327.335 792.1574074074072 321.66499999999996T796.7074074074072 309.395H813.8174074074072Q814.5974074074072 315.635 815.3474074074072 321.615T816.9874074074072 334.455L820.1574074074072 359.415Q820.9874074074072 366.175 821.7474074074072 371.89500000000004Q822.4974074074072 377.61500000000007 823.2274074074072 383.545H806.9474074074071Q806.0174074074072 375.74500000000006 805.1274074074072 368.72499999999997Q804.2474074074072 361.705 803.5174074074072 355.575L801.3374074074072 337.995H800.1874074074071L793.7374074074072 356.87500000000006Q791.3974074074072 363.8350000000001 789.0374074074073 370.675Q786.6674074074072 377.51500000000004 784.6374074074072 383.545H773.3074074074075Q771.8474074074074 379.64500000000004 770.1574074074074 375.175T766.6974074074075 366.045Q764.9374074074075 361.39500000000004 763.2174074074074 356.925L756.0374074074075 337.995H754.8974074074074L752.7674074074075 355.465Q752.0374074074075 361.65500000000003 751.1774074074075 368.705Q750.3174074074075 375.74499999999995 749.3874074074074 383.545M885.4174074074074 383.545H835.7074074074075V309.39500000000004H884.9474074074074V323.38500000000005H844.2874074074075L852.4474074074075 312.095V380.8450000000001L845.3774074074074 369.5550000000001H885.4174074074074ZM862.1174074074074 352.65500000000003H848.5474074074075V339.65500000000003H883.2874074074075V352.65500000000003ZM914.5374074074075 383.545H897.7374074074075V309.39500000000004H926.1874074074076Q935.2374074074075 309.39500000000004 941.4974074074075 311.39500000000004Q947.7674074074075 313.39500000000004 951.0174074074075 318.07500000000005T954.2674074074075 330.81500000000005Q954.2674074074075 337.21500000000003 951.7474074074075 342.31500000000005Q949.2174074074076 347.40500000000003 943.6574074074074 350.37500000000006Q938.0974074074074 353.33500000000004 929.0974074074074 353.33500000000004L935.6974074074076 347.095L945.7874074074075 361.965Q948.1274074074076 365.3949999999999 950.7774074074075 369.325Q953.4374074074076 373.25499999999994 955.9574074074076 376.965Q958.4774074074076 380.685 960.3974074074076 383.545H941.0074074074075Q938.1974074074076 379.175 935.5974074074074 375.175T930.5574074074075 367.37500000000006L918.5374074074075 348.44500000000005L928.6774074074076 356.195H911.4674074074076V343.97499999999997H923.8474074074074Q928.0074074074075 343.97499999999997 930.8374074074075 342.965Q933.6774074074076 341.945 935.1274074074074 339.505Q936.5874074074075 337.055 936.5874074074075 332.795Q936.5874074074075 329.625 935.6474074074074 327.675Q934.7174074074076 325.725 933.1274074074074 324.635Q931.5374074074075 323.53499999999997 929.5874074074075 323.175T925.6674074074076 322.815H902.3674074074077L914.5374074074075 312.09499999999997Z "></path><rect width="560" height="58.76" x="86.90740740740739" y="-185.72499999999997" fill="none" rx="0" ry="0" transform="translate(400.5 613.8)"></rect><path fill="#1b4571" d="M505.2974074074074 474.3550000000001Q502.9874074074074 474.3550000000001 500.6374074074074 473.9350000000001Q498.2774074074074 473.50500000000017 496.2874074074074 472.86500000000007Q494.30740740740737 472.2250000000001 493.0774074074074 471.5750000000001L493.5274074074074 467.13500000000005Q495.2674074074074 468.0950000000001 497.1474074074074 468.805Q499.0374074074074 469.52500000000003 500.9974074074074 469.915T505.0174074074074 470.305Q507.3274074074074 470.305 509.18740740740736 469.665T512.1274074074074 467.63500000000005T513.2074074074073 463.98500000000007Q513.2074074074073 462.00500000000005 512.0874074074075 460.7250000000001Q510.9674074074074 459.4350000000001 508.8474074074074 458.49500000000006Q506.7274074074074 457.5650000000001 503.7174074074074 456.62500000000006Q500.1774074074074 455.50500000000005 497.68740740740736 454.2050000000001Q495.18740740740736 452.90500000000014 493.8774074074074 450.99500000000006Q492.55740740740737 449.0850000000001 492.55740740740737 446.12500000000006Q492.55740740740737 443.23500000000007 493.9274074074074 440.9450000000001Q495.2874074074074 438.66500000000013 497.9974074074074 437.3450000000001Q500.69740740740735 436.03500000000014 504.7074074074074 436.03500000000014Q506.3674074074074 436.03500000000014 507.98740740740743 436.26500000000016Q509.6174074074074 436.50500000000017 511.09740740740745 436.90500000000014T513.8074074074075 437.8050000000001Q515.0274074074074 438.29500000000013 515.8874074074074 438.8150000000001L515.4174074074074 443.28500000000014Q513.8274074074075 442.2250000000002 512.0574074074075 441.50500000000017Q510.29740740740743 440.79500000000013 508.54740740740743 440.4450000000002Q506.8074074074074 440.0950000000002 505.32740740740746 440.0950000000002Q503.21740740740745 440.0950000000002 501.45740740740746 440.7150000000002Q499.6874074074074 441.3350000000002 498.60740740740744 442.62500000000017T497.5274074074074 445.9450000000002Q497.5274074074074 447.7050000000002 498.4374074074074 448.87500000000017T501.3074074074074 450.9750000000002Q503.2774074074074 451.89500000000015 506.3674074074074 452.88500000000016Q510.83740740740745 454.28500000000014 513.3974074074074 455.7350000000002Q515.9574074074075 457.17500000000024 517.0374074074074 459.0750000000002Q518.1174074074074 460.9650000000002 518.1174074074074 463.7250000000002Q518.1174074074074 466.76500000000016 516.7774074074074 469.15500000000014Q515.4374074074074 471.5550000000001 512.6074074074074 472.9550000000001T505.29740740740743 474.3550000000001M541.6474074074074 474.3550000000001Q536.9474074074075 474.3550000000001 533.4074074074074 472.8350000000001T527.5174074074074 468.65500000000014Q525.1674074074074 465.9850000000002 523.9974074074074 462.52500000000015Q522.8274074074075 459.0750000000001 522.8274074074075 455.2250000000002Q522.8274074074075 449.8150000000002 525.0174074074074 445.4750000000002Q527.2174074074074 441.13500000000016 531.3774074074074 438.5850000000002T541.4974074074074 436.03500000000025Q546.0174074074075 436.03500000000025 549.4874074074074 437.51500000000027T555.3274074074075 441.6250000000003Q557.6874074074075 444.2550000000003 558.8874074074074 447.7350000000003T560.0874074074075 455.19500000000033Q560.0874074074075 460.68500000000034 557.8974074074074 465.0150000000004Q555.7174074074074 469.3450000000004 551.5774074074075 471.8550000000004Q547.4474074074075 474.3550000000004 541.6474074074074 474.3550000000004M541.5174074074075 470.30500000000046Q545.0774074074075 470.30500000000046 547.6574074074074 469.06500000000045Q550.2274074074074 467.83500000000043 551.9074074074074 465.70500000000044Q553.5874074074075 463.56500000000045 554.3874074074074 460.8550000000004Q555.1974074074075 458.1350000000004 555.1974074074075 455.19500000000045Q555.1974074074075 452.0250000000005 554.3274074074075 449.2850000000005Q553.4574074074075 446.5350000000005 551.7274074074074 444.47500000000053Q549.9974074074074 442.4050000000005 547.4474074074075 441.2450000000005Q544.8974074074074 440.09500000000054 541.5174074074074 440.09500000000054Q538.0374074074075 440.09500000000054 535.4474074074075 441.31500000000057T531.1474074074074 444.6550000000006Q529.4274074074074 446.7750000000006 528.5674074074075 449.49500000000063Q527.7174074074074 452.20500000000067 527.7174074074074 455.1950000000007Q527.7174074074074 458.21500000000066 528.5474074074075 460.9150000000007Q529.3774074074074 463.62500000000074 531.0774074074075 465.74500000000074Q532.7874074074075 467.85500000000076 535.3874074074074 469.0850000000008Q537.9874074074074 470.3050000000008 541.5174074074074 470.3050000000008M572.1474074074074 473.7850000000008H567.5174074074074V436.71500000000077H590.1174074074074V440.7650000000007H570.1474074074074L572.1474074074074 437.38500000000073ZM577.8174074074075 457.1950000000008H571.0274074074074V453.27500000000083H589.0774074074075V457.1950000000008ZM611.5674074074075 473.7850000000008H606.8574074074074V437.38500000000084L608.7274074074074 440.89500000000083H594.1474074074074V436.7150000000009H624.2474074074074V440.89500000000083H609.6674074074074L611.5674074074075 437.38500000000084ZM643.7774074074074 473.7850000000008H637.9574074074073Q637.1774074074074 471.0350000000008 636.2674074074074 467.88500000000084T634.5774074074075 462.0650000000008L631.2474074074074 450.46500000000077Q630.3574074074074 447.37500000000074 629.2974074074075 443.6650000000008Q628.2274074074074 439.96500000000077 627.2974074074075 436.71500000000077H632.4974074074074Q633.5874074074075 440.6850000000008 634.7574074074074 445.0850000000008L636.9874074074074 453.4550000000008L640.9674074074074 468.22500000000076H641.4074074074074L645.2874074074075 453.2750000000007Q645.9574074074075 450.6950000000007 646.7074074074075 447.85500000000076L648.1874074074075 442.1550000000007Q648.9274074074075 439.3150000000007 649.5974074074074 436.71500000000066H655.0574074074075Q656.0974074074074 440.6850000000007 657.2474074074075 444.99500000000063L659.4574074074075 453.32500000000067L663.4074074074074 468.22500000000065H663.8474074074074L667.8774074074074 453.24500000000063Q668.9174074074074 449.3750000000006 670.0874074074075 444.97500000000065Q671.2574074074074 440.58500000000066 672.2974074074074 436.71500000000066H677.5274074074074L675.5074074074074 443.65500000000003Q674.4574074074073 447.295 673.5474074074075 450.36500000000007L670.1674074074074 462.0650000000001Q669.3574074074074 464.8450000000001 668.4674074074074 467.9750000000001Q667.5674074074075 471.1050000000001 666.7574074074075 473.785H660.7274074074076Q659.6874074074075 469.965 658.5374074074075 465.7250000000001Q657.3774074074074 461.48500000000007 656.3574074074074 457.77500000000003L652.4074074074075 443.315H651.9374074074075L648.0674074074075 457.77500000000003Q647.0774074074075 461.51500000000004 645.9374074074075 465.77500000000003Q644.7874074074075 470.045 643.7774074074075 473.785M685.1974074074075 473.785H680.4374074074075Q681.5274074074075 470.795 682.7174074074074 467.49500000000006Q683.8974074074074 464.1950000000001 684.9874074074074 461.2250000000001L689.5874074074075 448.48500000000007Q690.8074074074075 445.0550000000001 691.8274074074075 442.285L693.8574074074074 436.715H700.0374074074075Q701.0574074074075 439.575 702.0474074074075 442.325Q703.0274074074075 445.085 704.2574074074074 448.51500000000004L708.8274074074075 461.285Q709.9174074074074 464.34499999999997 711.0774074074075 467.585L713.2974074074075 473.785H708.4174074074074Q707.2974074074075 470.535 706.1074074074074 467.09499999999997L703.8874074074074 460.60499999999996L697.1274074074074 440.945H696.6874074074074L689.8774074074074 460.425Q688.7574074074074 463.59499999999997 687.5574074074075 467.065Q686.3674074074074 470.535 685.1974074074074 473.785M706.8274074074075 464.4750000000001H687.2974074074074L687.7174074074073 460.785H706.4874074074073ZM724.1974074074074 473.785H719.5974074074074V436.715H732.1274074074074Q736.3674074074074 436.715 739.1874074074074 437.715T743.4174074074074 440.925Q744.8374074074075 443.13500000000005 744.8374074074075 446.74500000000006Q744.8374074074075 449.785 743.6574074074074 452.3150000000001Q742.4774074074073 454.8350000000001 739.7174074074073 456.3550000000001T732.2574074074074 457.90500000000003L733.7374074074074 455.8450000000001L739.5874074074075 463.15500000000003Q740.9674074074074 464.8450000000001 742.4974074074075 466.76500000000004Q744.0374074074075 468.695 745.4874074074075 470.52500000000003L748.0874074074075 473.785H742.5774074074075Q740.7274074074076 471.445 739.0274074074075 469.26500000000004Q737.3274074074075 467.075 735.6574074074075 464.99500000000006L729.0074074074075 456.415L731.8874074074075 458.73500000000007H723.3874074074075V454.8550000000001H730.4374074074076Q733.6874074074076 454.8550000000001 735.7874074074075 454.1050000000001Q737.8974074074076 453.3550000000001 738.9374074074076 451.6750000000001T739.9774074074076 447.2150000000001Q739.9774074074076 444.90500000000014 739.2374074074075 443.5650000000001T737.2874074074075 441.5950000000001Q736.0774074074076 440.9750000000001 734.6774074074076 440.79500000000013Q733.2674074074075 440.6150000000002 731.9674074074076 440.6150000000002H721.0474074074075L724.1974074074076 437.38500000000016ZM777.5174074074074 473.785H754.4374074074074V436.715H777.4674074074074V440.74499999999995H756.4374074074075L759.0374074074075 437.38499999999993V473.085L756.6974074074076 469.75499999999994H777.5174074074075ZM765.1974074074074 456.965H758.0174074074074V453.035H776.4274074074074V456.965ZM818.3374074074075 473.785H795.2574074074074V436.715H818.2874074074074V440.74499999999995H797.2574074074074L799.8574074074074 437.38499999999993V473.085L797.5174074074075 469.75499999999994H818.3374074074075ZM806.0174074074074 456.965H798.8374074074075V453.035H817.2474074074074V456.965ZM830.5874074074075 473.785H826.1174074074074V436.715H830.3574074074074Q833.6774074074074 441.3949999999999 836.7474074074073 445.73499999999996T842.8074074074074 454.2849999999999L850.8374074074073 465.62499999999994H851.2274074074073V436.715H855.7074074074073V473.785H851.5174074074073Q848.7574074074073 469.88500000000005 845.7174074074073 465.585L839.0374074074073 456.13499999999993L830.9474074074074 444.715H830.5874074074073ZM882.8774074074074 474.335Q878.0374074074075 474.335 874.3574074074074 472.8949999999999Q870.6774074074074 471.4449999999999 868.1874074074074 468.84499999999997Q865.6874074074074 466.24499999999995 864.3974074074074 462.75499999999994Q863.1174074074074 459.25499999999994 863.1174074074074 455.1749999999999Q863.1174074074074 449.58499999999987 865.4174074074074 445.25499999999994T871.9174074074074 438.47499999999997Q876.1174074074074 436.0349999999999 881.8074074074075 436.0349999999999Q883.7574074074075 436.0349999999999 885.5874074074075 436.2949999999999Q887.4274074074075 436.5549999999999 889.0474074074075 437.01499999999993Q890.6774074074075 437.465 892.0374074074075 437.98499999999996Q893.4074074074075 438.50499999999994 894.3874074074075 439.0249999999999L893.9774074074076 443.5449999999999Q891.8174074074076 442.35499999999985 889.7874074074075 441.61499999999995T885.8374074074075 440.5349999999999T882.0974074074074 440.1949999999999Q878.9974074074074 440.1949999999999 876.4174074074074 441.20499999999987Q873.8274074074075 442.22499999999985 871.9274074074074 444.1749999999999T869.0074074074074 448.9049999999999Q867.9774074074074 451.6849999999999 867.9774074074074 455.1949999999999Q867.9774074074074 458.36499999999984 868.8774074074074 461.12499999999983Q869.7674074074074 463.8849999999998 871.6274074074074 465.96499999999986T876.3774074074074 469.1949999999999Q879.2574074074074 470.35499999999985 883.2074074074075 470.35499999999985Q884.6674074074075 470.35499999999985 886.1274074074074 470.21499999999986Q887.5774074074075 470.0649999999999 888.9974074074074 469.74499999999983Q890.4174074074074 469.4149999999998 891.7874074074074 468.9149999999998Q893.1674074074074 468.4049999999998 894.4674074074073 467.70499999999976L895.0174074074073 472.1249999999997Q894.1274074074073 472.5349999999997 892.8174074074072 472.92499999999967T889.8974074074073 473.6449999999997Q888.2774074074073 473.96499999999975 886.4974074074073 474.1549999999997Q884.7174074074073 474.33499999999964 882.8774074074073 474.33499999999964M895.0174074074073 472.1249999999996L890.5674074074072 472.20499999999964V455.17499999999967H895.0174074074073ZM908.2974074074073 473.78499999999957H903.5174074074073V436.7149999999995H908.2974074074073ZM922.4474074074072 473.78499999999957H917.9774074074072V436.7149999999995H922.2074074074072Q925.5374074074073 441.39499999999947 928.6074074074072 445.7349999999995T934.6674074074072 454.28499999999946L942.6974074074071 465.6249999999995H943.0874074074071V436.7149999999995H947.5574074074071V473.78499999999957H943.3774074074072Q940.6174074074072 469.8849999999996 937.5774074074072 465.5849999999995L930.8974074074073 456.1349999999995L922.8074074074073 444.7149999999995H922.4474074074072ZM980.2574074074073 473.78499999999957H957.1674074074073V436.7149999999995H980.2074074074072V440.7449999999995H959.1774074074073L961.7774074074073 437.3849999999995V473.0849999999995L959.4374074074072 469.7549999999995H980.2574074074073ZM967.9374074074072 456.9649999999995H960.7574074074073V453.03499999999957H979.1674074074073V456.9649999999995ZM1011.1274074074072 473.78499999999957H988.0474074074071V436.7149999999995H1011.0774074074071V440.7449999999995H990.0474074074071L992.6474074074072 437.3849999999995V473.0849999999995L990.3074074074071 469.7549999999995H1011.1274074074072ZM998.8074074074071 456.9649999999995H991.6274074074072V453.03499999999957H1010.0374074074072V456.9649999999995ZM1023.5074074074072 473.78499999999957H1018.9074074074074V436.7149999999995H1031.4374074074074Q1035.6774074074074 436.7149999999995 1038.4974074074073 437.7149999999995T1042.7374074074073 440.92499999999956Q1044.1474074074072 443.1349999999996 1044.1474074074072 446.7449999999996Q1044.1474074074072 449.78499999999957 1042.9674074074073 452.31499999999966Q1041.7874074074075 454.83499999999964 1039.0274074074073 456.3549999999996Q1036.2774074074073 457.8749999999996 1031.5674074074072 457.9049999999996L1033.0474074074073 455.84499999999963L1038.8974074074072 463.1549999999996Q1040.2774074074073 464.84499999999963 1041.8074074074073 466.7649999999996Q1043.3474074074072 468.69499999999954 1044.7974074074073 470.5249999999996L1047.3974074074072 473.78499999999957H1041.8874074074074Q1040.0474074074073 471.44499999999954 1038.3374074074072 469.2649999999996Q1036.6374074074074 467.07499999999953 1034.9774074074073 464.9949999999996L1028.3174074074072 456.41499999999957L1031.2074074074073 458.7349999999996H1022.6974074074074V454.8549999999996H1029.7474074074073Q1032.9974074074073 454.8549999999996 1035.1074074074072 454.1049999999996Q1037.2074074074073 453.3549999999996 1038.2474074074073 451.67499999999967T1039.2874074074073 447.21499999999963Q1039.2874074074073 444.9049999999997 1038.5474074074073 443.56499999999966T1036.5974074074072 441.59499999999963Q1035.3874074074072 440.9749999999996 1033.9874074074073 440.7949999999997Q1032.5774074074072 440.6149999999997 1031.2774074074073 440.6149999999997H1020.3574074074072L1023.5074074074072 437.3849999999997Z "></path><path fill="#333" d="M766.7254074074074 244.211C745.0414074074074 244.211 723.3574074074074 244.149 701.6734074074075 244.274C698.5534074074073 244.289 696.7914074074074 243.30700000000002 695.2314074074075 240.54500000000002A29686 29686 0 0 0 630.1634074074075 125.77600000000001C628.6654074074074 123.13999999999999 628.8064074074074 121.19 630.2574074074074 118.66300000000001A32093 32093 0 0 0 695.7454074074074 3.6750000000000114C697.2434074074074 1.0390000000000157 698.9594074074074 0.16500000000002046 701.9234074074075 0.16500000000002046Q767.1634074074075 0.2820000000000107 832.4014074074074 0.16500000000002046C835.3194074074074 0.16500000000002046 837.0194074074075 0.9760000000000275 838.5324074074074 3.6590000000000202A21986 21986 0 0 0 903.1634074074075 117.33700000000005C905.2234074074074 120.92500000000007 905.2074074074073 123.62300000000005 903.1634074074075 127.21100000000007A20402 20402 0 0 0 839.2194074074074 239.5010000000001C837.2374074074073 243.01100000000008 835.0534074074073 244.33600000000007 830.9824074074074 244.2890000000001C809.5634074074073 244.0870000000001 788.1444074074074 244.19600000000008 766.7104074074074 244.19600000000008ZM721.8454074074075 51.19300000000001V203.199C764.9314074074075 178.73900000000003 807.3484074074074 154.652 850.4824074074074 130.159C807.2234074074074 103.60899999999998 764.8854074074075 77.619 721.8444074074075 51.192999999999984M726.3214074074074 45.81099999999998C768.5194074074075 71.707 809.8754074074075 97.08799999999997 852.1674074074074 123.04599999999999C851.7144074074074 119.63 851.5114074074074 117.35199999999998 851.1064074074075 115.12099999999998C845.1784074074075 82.04899999999998 839.2194074074075 48.992999999999995 833.3064074074075 15.920999999999992C832.4794074074075 11.287999999999982 832.4484074074074 11.179000000000002 827.8154074074075 12.691000000000003A158846 158846 0 0 0 747.8494074074074 38.68100000000001C740.9854074074075 40.912000000000006 734.1534074074075 43.20500000000001 726.3064074074075 45.795000000000016ZM714.0604074074074 200.25099999999998V53.065000000000026C689.1624074074074 76.99500000000003 664.9674074074073 100.25500000000005 640.3974074074074 123.87300000000005C664.8574074074074 149.23900000000003 689.0374074074074 174.32300000000004 714.0604074074074 200.26600000000002ZM727.7414074074075 207.988C729.2234074074074 208.55 729.9094074074073 208.89299999999997 730.6114074074073 209.065C761.9514074074074 216.865 793.3084074074075 224.68 824.6644074074075 232.449C829.7184074074073 233.697 829.7034074074074 233.603 830.8734074074074 228.611C837.5814074074074 199.81399999999996 844.3204074074074 171.01600000000002 851.0134074074074 142.219C851.3094074074074 140.93900000000002 851.4034074074074 139.613 851.7304074074074 137.351C810.0624074074074 161.079 769.3154074074073 184.30700000000002 727.7254074074074 207.988ZM704.5594074074074 7.341000000000008C705.2464074074073 9.119 705.6514074074073 10.336000000000013 706.1824074074074 11.475000000000023C710.1134074074073 19.94500000000002 714.2474074074073 28.323000000000036 717.9134074074074 36.90300000000002C719.3014074074074 40.148000000000025 720.8934074074074 40.303000000000026 723.8414074074074 39.33700000000002C752.9194074074073 29.805000000000007 782.0454074074073 20.38300000000001 811.1394074074074 10.913000000000011C814.0564074074073 9.962000000000018 816.9424074074074 8.88500000000002 819.8284074074074 7.871000000000009C819.7654074074073 7.700000000000017 819.6884074074073 7.513000000000005 819.6254074074075 7.341000000000008ZM843.2594074074074 26.108000000000004C842.9634074074074 26.233000000000004 842.6514074074073 26.358000000000004 842.3544074074074 26.49799999999999C843.0564074074074 30.429000000000002 843.7744074074074 34.375999999999976 844.4604074074074 38.30699999999999C849.4684074074073 66.512 854.5074074074074 94.701 859.4364074074074 122.92099999999999C859.9044074074075 125.62099999999998 860.7624074074074 126.36899999999997 863.5234074074074 125.68299999999999C869.8104074074074 124.13799999999998 876.2064074074074 122.96800000000002 882.5244074074074 121.56400000000002C886.6584074074074 120.644 890.7614074074074 119.58300000000003 895.5044074074074 118.44400000000002A262546 262546 0 0 0 843.2444074074074 26.108000000000004ZM642.9094074074073 110.41000000000003L643.4694074074074 110.92500000000001C643.8754074074075 110.66000000000003 644.3434074074074 110.44100000000003 644.7024074074075 110.09800000000001C667.0424074074074 88.74200000000002 689.3494074074074 67.37 711.7204074074075 46.06C713.5144074074074 44.360000000000014 713.3734074074075 42.95599999999999 712.4374074074074 40.959C708.4444074074074 32.519000000000005 704.5914074074074 24.00200000000001 700.6444074074075 15.531000000000006C700.2074074074073 14.579000000000008 699.5214074074074 13.753000000000014 698.6004074074074 12.317000000000007C679.7874074074075 45.46700000000001 661.3474074074074 77.93100000000001 642.9084074074074 110.41000000000003M896.0654074074075 125.27700000000004C883.9284074074073 127.86700000000002 873.0244074074075 130.11300000000006 862.2134074074074 132.65600000000006C861.0594074074074 132.92100000000005 859.7794074074075 134.85600000000005 859.4524074074075 136.22800000000007C852.6354074074075 164.83800000000008 845.9274074074075 193.49600000000004 839.2344074074074 222.1380000000001C839.0314074074074 223.01100000000008 839.0164074074074 223.9310000000001 838.9074074074074 224.83600000000007C839.1254074074075 224.8830000000001 839.3434074074074 224.94600000000008 839.5624074074074 224.99200000000008C858.2044074074074 192.10700000000008 876.8304074074074 159.23800000000006 896.0814074074074 125.2770000000001ZM812.8854074074075 237.28500000000003L812.9794074074075 236.817C812.1844074074074 236.505 811.4194074074074 236.115 810.5934074074074 235.91200000000003C781.6704074074074 228.627 752.7334074074074 221.389 723.8254074074075 214.05700000000002C720.9394074074074 213.32300000000004 718.9584074074074 213.651 717.4614074074075 216.56800000000004C715.6824074074075 220.01600000000002 713.4364074074075 223.22900000000004 711.4394074074075 226.55200000000002C709.4114074074075 229.937 707.4294074074076 233.35400000000004 705.1214074074076 237.269H812.8864074074074ZM699.2404074074075 233.416C703.4524074074075 226.365 706.9624074074075 220.031 710.9554074074074 214.026C713.0774074074075 210.827 712.8434074074074 208.877 710.1604074074074 206.11599999999999C690.5974074074074 186.08599999999996 671.2074074074073 165.88399999999996 651.7534074074074 145.76C650.9274074074074 144.902 650.0064074074074 144.137 649.1334074074075 143.34199999999998C648.9144074074075 143.529 648.6964074074074 143.70099999999996 648.4774074074074 143.88799999999998A220631 220631 0 0 1 699.2404074074075 233.43199999999996Z "></path></g><rect width="560" height="487" x="470" y="0" id="space-saver" fill="transparent" stroke="transparent"></rect></g></svg>